<?xml version="1.0" encoding="UTF-8" standalone="no"?>
<!-- Created with Inkscape (http://www.inkscape.org/) -->

<svg
   version="1.1"
   id="svg1"
   width="593.51263"
   height="131.12292"
   viewBox="0 0 593.51263 131.12292"
   xml:space="preserve"
   xmlns:xlink="http://www.w3.org/1999/xlink"
   xmlns="http://www.w3.org/2000/svg"
   xmlns:svg="http://www.w3.org/2000/svg"><defs
     id="defs1"><linearGradient
       id="linearGradient9"><stop
         style="stop-color:#285b6d;stop-opacity:1;"
         offset="0"
         id="stop9" /><stop
         style="stop-color:#158777;stop-opacity:1;"
         offset="1"
         id="stop10" /></linearGradient><linearGradient
       xlink:href="#linearGradient9"
       id="linearGradient10"
       x1="82.334473"
       y1="367.64789"
       x2="675.84711"
       y2="367.64789"
       gradientUnits="userSpaceOnUse" /></defs><g
     id="g1"
     transform="translate(-82.334473,-302.08643)"><path
       style="fill:url(#linearGradient10);fill-opacity:1;stroke-width:0.805533"
       d="m 183.39069,432.64046 c -0.13874,-0.34596 -1.09651,-0.82414 -2.12838,-1.0626 -3.85228,-0.89028 -9.10874,-8.06608 -10.23952,-13.97837 -0.28843,-1.50805 -0.74664,-3.34191 -1.01825,-4.07524 -0.34792,-0.93936 -0.53919,-12.01996 -0.64728,-37.5 l -0.15344,-36.16666 h 8.45593 8.45593 l 0.12826,30.83333 c 0.13503,32.45748 0.0854,31.60951 2.06968,35.39439 1.26896,2.42051 3.88054,3.77227 7.28796,3.77227 4.21981,0 7.65029,-1.90925 10.4832,-5.83449 l 2.1332,-2.95573 v -30.60489 -30.60488 h 8.43549 8.43549 v 45.66666 45.66667 h -8.43549 -8.43549 v -4.22223 c 0,-2.32222 -0.12233,-4.41074 -0.27185,-4.64115 -0.14951,-0.23042 -1.08095,0.60284 -2.06988,1.85167 -2.37825,3.00331 -6.77154,6.328 -9.98707,7.55787 -3.05314,1.16775 -12.12938,1.82378 -12.49849,0.90338 z m 74.275,-1.07311 c -5.01399,-2.79622 -7.43621,-7.00353 -8.84597,-15.36513 -0.69491,-4.12172 -0.78958,-7.67049 -0.79611,-29.84464 l -0.007,-25.16666 h -4.97478 -4.97478 v -11.33334 -11.33333 h 4.97478 4.97478 v -12.01409 -12.01409 l 8.54364,0.18075 8.54364,0.18076 0.11812,11.83334 0.11813,11.83333 h 4.9648 4.9648 v 11.31217 11.31218 l -5.08293,0.18782 -5.08292,0.18783 -0.12875,20.66667 c -0.1392,22.34443 0.0301,24.6586 1.97766,27.03244 0.95627,1.16558 1.55738,1.36922 3.17941,1.07715 1.10011,-0.1981 2.65743,-0.97767 3.46071,-1.73239 1.77907,-1.67151 1.9471,-1.6873 2.23952,-0.21054 0.98385,4.96843 2.21945,11.74972 2.67553,14.68397 0.5189,3.33843 0.4984,3.57574 -0.40322,4.66666 -3.10076,3.75178 -7.31652,5.49776 -13.08214,5.41802 -3.68394,-0.0509 -5.24619,-0.38199 -7.35651,-1.55888 z m 52.85967,0.19706 c -2.14132,-0.70176 -4.50671,-1.71788 -5.25645,-2.25804 -0.74972,-0.54017 -1.54143,-0.98212 -1.75933,-0.98212 -1.29715,0 -8.20381,-6.55444 -9.93893,-9.43209 l -0.9489,-1.57372 2.042,-5.33043 c 1.1231,-2.93174 2.66551,-6.83043 3.42757,-8.66376 0.76206,-1.83333 1.4612,-3.63333 1.55365,-4 0.0925,-0.36667 0.72904,0.10036 1.41464,1.03784 5.30708,7.25679 13.26487,12.05588 20.04576,12.08895 5.57044,0.0272 8.23763,-2.35939 8.23763,-7.3709 0,-3.50565 -2.42806,-5.30989 -10.38215,-7.71476 -12.99641,-3.92938 -18.74393,-9.15209 -21.68821,-19.7078 -0.88215,-3.16267 -1.02072,-4.72048 -1.00817,-11.33333 0.0171,-8.9747 0.62096,-11.6084 3.98358,-17.37221 3.90937,-6.70098 9.05034,-10.33795 15.86565,-11.22414 4.90801,-0.63819 11.95433,0.10272 14.71524,1.54729 1.10275,0.57698 2.19842,1.04906 2.43479,1.04906 1.28112,0 8.08817,5.68003 10.91771,9.1101 l 1.1728,1.42171 -3.35528,9.04829 c -1.84541,4.97655 -3.49283,9.0569 -3.66093,9.06742 -0.16811,0.0105 -1.13951,-1.16745 -2.15867,-2.61773 -3.85086,-5.4798 -8.88646,-8.21022 -15.30325,-8.29777 -4.54197,-0.062 -4.88341,0.03 -6.59699,1.77744 -1.54252,1.57298 -1.80711,2.18054 -1.80711,4.14954 0,1.92565 0.23228,2.49394 1.40592,3.43972 1.52812,1.23144 4.45981,2.49061 9.19253,3.94822 5.82152,1.79296 11.3128,4.68653 14.27545,7.52231 2.60606,2.49448 6.12281,8.37055 6.72047,11.22912 0.2915,1.39423 0.74771,2.95559 1.01379,3.46969 0.30033,0.58028 0.47985,4.11957 0.47341,9.33334 -0.0103,8.3708 -0.0155,8.41316 -1.56749,12.79669 -1.96198,5.54159 -4.50666,9.25853 -8.37054,12.22658 -4.46925,3.43307 -8.1069,4.57286 -15.14063,4.74403 -4.6114,0.11223 -6.98508,-0.15701 -9.94956,-1.12854 z m 53.20849,-0.82801 c -2.95451,-2.98735 -4.54219,-7.48843 -4.54219,-12.87715 0,-8.84447 4.00196,-14.86833 9.87778,-14.86833 3.40222,0 5.18364,1.23267 7.40705,5.12539 3.19055,5.58598 3.26294,13.90906 0.16942,19.47875 -2.22625,4.00822 -4.25818,5.40294 -7.81189,5.3621 -2.57169,-0.0296 -3.20639,-0.30593 -5.10017,-2.22076 z m 61.4277,0.62231 c -8.60839,-3.32756 -14.43311,-8.24499 -20.14919,-17.01062 -3.98639,-6.11314 -6.93133,-12.47952 -8.9633,-19.37693 -1.73779,-5.89886 -2.16389,-7.98068 -3.13431,-15.31358 -2.42174,-18.29955 0.75688,-38.33956 8.40652,-52.99999 6.23998,-11.95884 13.69709,-19.30335 23.26413,-22.91288 12.12015,-4.57279 25.30163,-0.58937 35.27885,10.66119 3.39222,3.82515 7.72758,10.68907 10.00416,15.83899 2.1039,4.75932 2.19096,4.38736 -1.66422,7.11104 -1.30858,0.92451 -4.89267,3.57699 -7.96465,5.8944 l -5.5854,4.21348 -3.28267,-5.08945 c -3.45845,-5.36195 -7.89397,-9.35738 -11.50188,-10.36065 -3.07615,-0.8554 -9.46651,-0.47921 -11.72246,0.69008 -5.95566,3.08691 -10.69309,8.86912 -13.65502,16.66647 -4.14523,10.91247 -4.15172,24.97834 -0.0165,35.86448 2.97474,7.83118 7.25705,13.10335 13.30326,16.37832 3.62001,1.96079 10.39213,1.93588 14.11931,-0.0519 4.10051,-2.18694 7.38394,-5.47673 10.1587,-10.1784 l 2.52077,-4.27132 8.02385,6.10643 c 4.41312,3.35854 8.25559,6.34707 8.53884,6.64119 0.6338,0.65815 0.0271,2.25672 -3.33592,8.78881 -6.12485,11.89669 -14.62521,19.77249 -25.12297,23.27707 -4.78403,1.5971 -12.5748,1.34533 -17.51987,-0.56618 z m 73.54019,0.25695 c -5.70418,-2.7483 -10.39847,-9.4006 -12.41809,-17.59772 -1.39093,-5.64547 -1.38381,-16.99179 0.014,-22.22333 2.10022,-7.86062 5.73661,-13.04441 11.32775,-16.14805 3.98999,-2.21484 12.20876,-2.28776 16.68721,-0.14805 3.01559,1.44078 6.85543,4.34289 7.33786,5.54588 0.13525,0.33726 0.54906,0.61319 0.91958,0.61319 0.57633,0 0.64866,-0.95958 0.50058,-6.64132 -0.15812,-6.06686 -0.28408,-6.8845 -1.45623,-9.4529 -2.00187,-4.38644 -4.69776,-6.16999 -9.7587,-6.45618 -6.17452,-0.34915 -10.72012,2.07738 -15.80968,8.43951 l -2.65577,3.31981 -3.33449,-9.00944 -3.3345,-9.00944 1.62125,-2.05949 c 8.70732,-11.06101 19.89076,-15.62733 32.06559,-13.09275 6.96968,1.45096 12.65465,6.16141 15.74317,13.04447 0.67841,1.51192 1.76636,4.81192 2.41766,7.33334 l 1.18419,4.58439 0.16465,34.16667 0.16465,34.16667 h -8.46967 -8.46966 v -3 c 0,-3.65957 -0.31704,-3.71709 -3.46071,-0.6278 -3.93464,3.86657 -8.31527,5.63876 -13.75705,5.56544 -3.21807,-0.0434 -5.41874,-0.44334 -7.22354,-1.3129 z m 18.44824,-17.98134 c 1.54244,-0.74613 3.52187,-2.26797 4.39875,-3.38187 1.57001,-1.99441 1.59431,-2.09896 1.59431,-6.86053 0,-5.4824 -0.38687,-6.38518 -3.89331,-9.08528 -2.3795,-1.83232 -9.34197,-2.61484 -11.86191,-1.33317 -4.44804,2.26233 -6.6069,9.03168 -4.77632,14.97674 1.8839,6.11823 8.3859,8.66032 14.53848,5.68411 z m 53.57789,17.72054 c -7.09903,-2.6329 -11.38413,-5.72511 -15.16422,-10.94281 l -2.26109,-3.12101 3.56664,-8.9834 c 1.96164,-4.94086 3.63275,-9.09154 3.71357,-9.22372 0.0808,-0.13217 1.2772,1.11281 2.65863,2.76663 1.38143,1.65383 3.58235,3.81174 4.89093,4.79536 1.30859,0.98363 2.68148,2.0292 3.05087,2.3235 0.3694,0.29429 2.17223,1.16953 4.00628,1.94496 4.53462,1.91722 9.55938,1.91442 12.21153,-0.007 2.24232,-1.62435 2.90106,-3.10205 2.71115,-6.08168 -0.21702,-3.40497 -1.9594,-4.58036 -11.59768,-7.82365 -7.57564,-2.5492 -7.34304,-2.43643 -11.89621,-5.7677 -5.48237,-4.01112 -8.81416,-11.19883 -9.73244,-20.99594 -1.0154,-10.83322 2.04226,-20.90585 8.14996,-26.84776 9.80977,-9.54352 27.68429,-7.75188 38.30992,3.83997 3.34627,3.65056 3.35932,2.72024 -0.17167,12.2395 -1.73832,4.68634 -3.34811,8.89263 -3.57731,9.34731 -0.31272,0.62035 -0.93643,0.10659 -2.49891,-2.05836 -4.80436,-6.65685 -13.23215,-10.40952 -19.08532,-8.49819 -3.61539,1.1806 -5.64751,4.81675 -4.35803,7.79798 0.7244,1.67476 5.99821,4.17983 12.43032,5.90441 6.79738,1.82251 14.20356,7.62463 16.91117,13.24849 2.72722,5.66456 3.79648,11.20598 3.70672,19.20985 -0.11922,10.6308 -3.90148,19.10592 -10.82301,24.25176 -6.0546,4.50132 -17.07647,5.67631 -25.1518,2.68132 z m -488.379725,-19.86394 0.01367,-19.5 0.959656,1.70382 c 0.527811,0.9371 1.300086,2.4371 1.716167,3.33333 0.416081,0.89623 1.545086,3.27951 2.508901,5.29618 0.963814,2.01667 2.034472,4.26667 2.379241,5 0.344768,0.73333 1.415427,2.98333 2.379241,5 2.169894,4.54025 2.585204,5.42346 4.702232,10 0.932877,2.01667 1.989035,4.16896 2.347018,4.78287 0.357983,0.61391 0.867129,1.73891 1.131439,2.5 0.47948,1.38071 0.45974,1.3838 -8.835344,1.3838 h -9.315891 z m 53.171645,15.48502 c -1.05791,-2.20824 -2.99413,-6.22243 -4.30272,-8.92043 -1.30858,-2.69799 -2.67123,-5.57017 -3.02812,-6.38262 -0.35689,-0.81245 -1.42755,-3.06078 -2.37924,-4.99628 -0.9517,-1.93551 -2.02236,-4.18551 -2.37924,-5 -0.35689,-0.8145 -1.42755,-3.0645 -2.37925,-5 -0.95169,-1.93551 -2.02235,-4.18256 -2.37924,-4.99346 -0.52735,-1.19822 -12.64017,-26.83416 -20.885837,-44.20343 -1.003806,-2.11449 -2.117101,-4.47511 -2.473987,-5.24582 -0.356886,-0.7707 -0.989548,-1.96566 -1.405916,-2.65546 -0.416366,-0.68981 -0.75703,-1.43588 -0.75703,-1.65795 0,-0.22207 -0.437997,-1.23034 -0.973327,-2.24059 -0.535329,-1.01026 -1.265324,-2.51605 -1.62221,-3.3462 -0.356887,-0.83016 -1.427545,-3.09297 -2.379241,-5.02847 -0.951697,-1.93551 -2.022356,-4.18245 -2.379242,-4.99321 -0.356886,-0.81075 -1.281546,-2.77168 -2.0548,-4.35761 -1.315112,-2.69727 -1.405915,-3.23055 -1.405915,-8.25683 v -5.37333 l 8.976229,0.022 8.976226,0.022 2.59169,5.47803 c 1.42542,3.01291 2.74133,5.77802 2.92424,6.14469 1.60229,3.21203 5.42974,11.13891 5.94769,12.31803 0.54755,1.2465 3.5353,7.4567 4.65802,9.68197 0.18499,0.36667 3.04857,6.36666 6.36351,13.33333 3.31493,6.96666 6.18279,12.96667 6.37301,13.33333 0.91466,1.76307 4.09227,8.376 4.66752,9.7136 0.35689,0.82984 1.18129,2.43377 1.83201,3.56427 0.99369,1.72637 1.25236,1.89536 1.61558,1.05547 0.27497,-0.63583 0.43488,-14.41378 0.43909,-37.83333 l 0.007,-36.83334 h 9.30067 9.30067 v 63.33333 63.33334 h -9.43197 -9.432 z m 484.52327,-59.66609 v -63.68106 l 8.32735,0.18107 8.32734,0.18106 0.11406,21.83333 c 0.066,12.62926 0.2809,21.83333 0.50983,21.83333 0.21769,0 0.65302,-0.38167 0.96742,-0.84816 1.17002,-1.73602 5.40753,-5.58748 7.70936,-7.00702 1.30858,-0.80701 4.17768,-1.87922 6.37576,-2.38271 3.41853,-0.78304 4.60111,-0.778 8.17701,0.0349 8.9447,2.03323 13.7906,9.33378 14.85164,22.37459 0.25001,3.07268 0.44426,19.8243 0.44426,38.31097 v 32.85083 h -8.41151 -8.41151 l -0.14009,-30.5 c -0.15469,-33.68142 -0.13482,-33.43192 -2.95351,-37.08708 -1.77363,-2.29995 -2.97195,-2.75486 -7.12022,-2.70297 -4.10859,0.0514 -7.27349,1.97326 -10.11889,6.14468 l -1.77732,2.60558 v 30.7699 30.76989 h -8.43549 -8.43549 z"
       id="path1" /></g></svg>
